<svg width="24" height="24" viewBox="0 0 24 24" fill="none" xmlns="http://www.w3.org/2000/svg">
<g clip-path="url(#clip0_105_410)">
<path d="M21 1.5C21.3978 1.5 21.7794 1.65804 22.0607 1.93934C22.342 2.22064 22.5 2.60218 22.5 3V21C22.5 21.3978 22.342 21.7794 22.0607 22.0607C21.7794 22.342 21.3978 22.5 21 22.5H3C2.60218 22.5 2.22064 22.342 1.93934 22.0607C1.65804 21.7794 1.5 21.3978 1.5 21V3C1.5 2.60218 1.65804 2.22064 1.93934 1.93934C2.22064 1.65804 2.60218 1.5 3 1.5H21ZM3 0C2.20435 0 1.44129 0.316071 0.87868 0.87868C0.316071 1.44129 0 2.20435 0 3V21C0 21.7956 0.316071 22.5587 0.87868 23.1213C1.44129 23.6839 2.20435 24 3 24H21C21.7956 24 22.5587 23.6839 23.1213 23.1213C23.6839 22.5587 24 21.7956 24 21V3C24 2.20435 23.6839 1.44129 23.1213 0.87868C22.5587 0.316071 21.7956 0 21 0H3Z" fill="white"/>
<path d="M16.455 7.45499C16.6649 7.2469 16.9483 7.12978 17.2439 7.12897C17.5395 7.12815 17.8235 7.2437 18.0346 7.45063C18.2457 7.65756 18.3668 7.93925 18.3718 8.23479C18.3769 8.53033 18.2654 8.81599 18.0615 9.02999L12.0735 16.515C11.9706 16.6258 11.8464 16.7148 11.7083 16.7766C11.5702 16.8383 11.4211 16.8716 11.2699 16.8744C11.1186 16.8772 10.9684 16.8494 10.8281 16.7928C10.6879 16.7363 10.5604 16.652 10.4535 16.545L6.48599 12.576C6.37546 12.473 6.28681 12.3488 6.22532 12.2108C6.16383 12.0728 6.13077 11.9238 6.1281 11.7728C6.12544 11.6217 6.15322 11.4717 6.20981 11.3316C6.26639 11.1915 6.3506 11.0643 6.45743 10.9574C6.56426 10.8506 6.69151 10.7664 6.83159 10.7098C6.97168 10.6532 7.12172 10.6254 7.27277 10.6281C7.42383 10.6308 7.5728 10.6638 7.7108 10.7253C7.8488 10.7868 7.973 10.8755 8.07599 10.986L11.217 14.1255L16.4265 7.48799C16.4358 7.47637 16.4443 7.46535 16.455 7.45499Z" fill="white"/>
</g>
<defs>
<clipPath id="clip0_105_410">
<rect width="24" height="24" fill="white"/>
</clipPath>
</defs>
</svg>
