<svg width="18" height="22" viewBox="0 0 18 22" fill="none" xmlns="http://www.w3.org/2000/svg">
<path d="M0 1.25C0 1.05109 0.0790178 0.860322 0.21967 0.71967C0.360322 0.579018 0.551088 0.5 0.75 0.5H17.25C17.4489 0.5 17.6397 0.579018 17.7803 0.71967C17.921 0.860322 18 1.05109 18 1.25C18 1.44891 17.921 1.63968 17.7803 1.78033C17.6397 1.92098 17.4489 2 17.25 2H15.75V3.5C15.7503 4.77355 15.3903 6.0212 14.7116 7.09883C14.0329 8.17647 13.0632 9.04011 11.9145 9.59C11.4795 9.7985 11.25 10.1555 11.25 10.475V11.525C11.25 11.8445 11.481 12.2015 11.9145 12.41C13.0632 12.9599 14.0329 13.8235 14.7116 14.9012C15.3903 15.9788 15.7503 17.2265 15.75 18.5V20H17.25C17.4489 20 17.6397 20.079 17.7803 20.2197C17.921 20.3603 18 20.5511 18 20.75C18 20.9489 17.921 21.1397 17.7803 21.2803C17.6397 21.421 17.4489 21.5 17.25 21.5H0.75C0.551088 21.5 0.360322 21.421 0.21967 21.2803C0.0790178 21.1397 0 20.9489 0 20.75C0 20.5511 0.0790178 20.3603 0.21967 20.2197C0.360322 20.079 0.551088 20 0.75 20H2.25V18.5C2.24969 17.2265 2.60968 15.9788 3.28837 14.9012C3.96707 13.8235 4.93679 12.9599 6.0855 12.41C6.5205 12.2015 6.75 11.8445 6.75 11.525V10.475C6.75 10.1555 6.519 9.7985 6.0855 9.59C4.93679 9.04011 3.96707 8.17647 3.28837 7.09883C2.60968 6.0212 2.24969 4.77355 2.25 3.5V2H0.75C0.551088 2 0.360322 1.92098 0.21967 1.78033C0.0790178 1.63968 0 1.44891 0 1.25ZM3.75 2V3.5C3.74973 4.49063 4.02974 5.46112 4.55768 6.29935C5.08562 7.13758 5.83994 7.80933 6.7335 8.237C7.533 8.621 8.25 9.4235 8.25 10.4735V11.5265C8.25 12.5765 7.533 13.379 6.7335 13.763C5.83994 14.1907 5.08562 14.8624 4.55768 15.7007C4.02974 16.5389 3.74973 17.5094 3.75 18.5V20H14.25V18.5C14.2503 17.5094 13.9703 16.5389 13.4423 15.7007C12.9144 14.8624 12.1601 14.1907 11.2665 13.763C10.467 13.379 9.75 12.578 9.75 11.5265V10.4735C9.75 9.4235 10.467 8.621 11.2665 8.237C12.1601 7.80933 12.9144 7.13758 13.4423 6.29935C13.9703 5.46112 14.2503 4.49063 14.25 3.5V2H3.75Z" fill="white"/>
</svg>
