<svg width="24" height="19" viewBox="0 0 24 19" fill="none" xmlns="http://www.w3.org/2000/svg">
<g clip-path="url(#clip0_105_426)">
<path d="M3.27586e-09 2.25C3.27586e-09 1.65326 0.237053 1.08097 0.65901 0.65901C1.08097 0.237053 1.65326 0 2.25 0H15.75C16.3467 0 16.919 0.237053 17.341 0.65901C17.7629 1.08097 18 1.65326 18 2.25V4.5H19.53C19.8671 4.5003 20.1998 4.57635 20.5036 4.72252C20.8074 4.86869 21.0744 5.08125 21.285 5.3445L23.5065 8.1195C23.8261 8.51878 24.0002 9.01504 24 9.5265V12.75C24 13.3467 23.7629 13.919 23.341 14.341C22.919 14.7629 22.3467 15 21.75 15H21C21 15.7956 20.6839 16.5587 20.1213 17.1213C19.5587 17.6839 18.7956 18 18 18C17.2044 18 16.4413 17.6839 15.8787 17.1213C15.3161 16.5587 15 15.7956 15 15H7.5C7.50086 15.3999 7.42177 15.7959 7.26738 16.1648C7.11299 16.5336 6.88642 16.8679 6.60097 17.148C6.31553 17.428 5.97698 17.6481 5.60523 17.7955C5.23348 17.9428 4.83603 18.0143 4.43624 18.0058C4.03645 17.9973 3.6424 17.909 3.27724 17.746C2.91209 17.583 2.5832 17.3486 2.30992 17.0567C2.03664 16.7648 1.82447 16.4212 1.6859 16.0461C1.54733 15.671 1.48514 15.272 1.503 14.8725C1.06357 14.7178 0.682984 14.4306 0.413766 14.0504C0.144548 13.6702 -2.51279e-05 13.2159 3.27586e-09 12.75V2.25ZM1.941 13.434C2.2122 12.99 2.59427 12.6242 3.04965 12.3725C3.50503 12.1209 4.01805 11.9921 4.53829 11.9987C5.05853 12.0054 5.56809 12.1473 6.01688 12.4105C6.46567 12.6737 6.83825 13.0492 7.098 13.5H15.402C15.6659 13.0444 16.0444 12.6659 16.5 12.402V2.25C16.5 2.05109 16.421 1.86032 16.2803 1.71967C16.1397 1.57902 15.9489 1.5 15.75 1.5H2.25C2.05109 1.5 1.86032 1.57902 1.71967 1.71967C1.57902 1.86032 1.5 2.05109 1.5 2.25V12.75C1.49988 12.8944 1.54143 13.0357 1.61966 13.157C1.69788 13.2783 1.80946 13.3745 1.941 13.434ZM18 12C18.5266 12 19.0439 12.1386 19.5 12.4019C19.956 12.6652 20.3347 13.044 20.598 13.5H21.75C21.9489 13.5 22.1397 13.421 22.2803 13.2803C22.421 13.1397 22.5 12.9489 22.5 12.75V9.525C22.4997 9.3548 22.4415 9.18976 22.335 9.057L20.115 6.282C20.0449 6.19416 19.9559 6.12321 19.8546 6.0744C19.7533 6.02559 19.6424 6.00016 19.53 6H18V12ZM4.5 13.5C4.10218 13.5 3.72064 13.658 3.43934 13.9393C3.15804 14.2206 3 14.6022 3 15C3 15.3978 3.15804 15.7794 3.43934 16.0607C3.72064 16.342 4.10218 16.5 4.5 16.5C4.89782 16.5 5.27936 16.342 5.56066 16.0607C5.84196 15.7794 6 15.3978 6 15C6 14.6022 5.84196 14.2206 5.56066 13.9393C5.27936 13.658 4.89782 13.5 4.5 13.5ZM18 13.5C17.6022 13.5 17.2206 13.658 16.9393 13.9393C16.658 14.2206 16.5 14.6022 16.5 15C16.5 15.3978 16.658 15.7794 16.9393 16.0607C17.2206 16.342 17.6022 16.5 18 16.5C18.3978 16.5 18.7794 16.342 19.0607 16.0607C19.342 15.7794 19.5 15.3978 19.5 15C19.5 14.6022 19.342 14.2206 19.0607 13.9393C18.7794 13.658 18.3978 13.5 18 13.5Z" fill="white"/>
</g>
<defs>
<clipPath id="clip0_105_426">
<rect width="24" height="19" fill="white"/>
</clipPath>
</defs>
</svg>
