<svg width="110" height="105" viewBox="0 0 110 105" fill="none" xmlns="http://www.w3.org/2000/svg">
<path d="M0 8C0 3.58172 3.58172 0 8 0H110V105H8C3.58172 105 0 101.418 0 97V8Z" fill="url(#paint0_radial_120_1168)"/>
<path d="M20.2422 65.6H26.3382V74H25.2222V66.656H21.3582V74H20.2422V65.6ZM31.8246 67.844C32.6646 67.844 33.3806 68.152 33.9726 68.768C34.5646 69.384 34.8606 70.128 34.8606 71C34.8606 71.88 34.5646 72.628 33.9726 73.244C33.3886 73.852 32.6726 74.156 31.8246 74.156C30.8326 74.156 30.0766 73.76 29.5566 72.968V76.4H28.5126V68H29.5566V69.032C30.0766 68.24 30.8326 67.844 31.8246 67.844ZM31.6926 73.148C32.2926 73.148 32.7966 72.944 33.2046 72.536C33.6126 72.112 33.8166 71.6 33.8166 71C33.8166 70.392 33.6126 69.884 33.2046 69.476C32.7966 69.06 32.2926 68.852 31.6926 68.852C31.0846 68.852 30.5766 69.06 30.1686 69.476C29.7606 69.884 29.5566 70.392 29.5566 71C29.5566 71.6 29.7606 72.112 30.1686 72.536C30.5766 72.944 31.0846 73.148 31.6926 73.148ZM41.6504 73.244C41.0424 73.852 40.2944 74.156 39.4064 74.156C38.5184 74.156 37.7704 73.852 37.1624 73.244C36.5544 72.636 36.2504 71.888 36.2504 71C36.2504 70.112 36.5544 69.364 37.1624 68.756C37.7704 68.148 38.5184 67.844 39.4064 67.844C40.2944 67.844 41.0424 68.148 41.6504 68.756C42.2664 69.372 42.5744 70.12 42.5744 71C42.5744 71.88 42.2664 72.628 41.6504 73.244ZM39.4064 73.136C40.0064 73.136 40.5104 72.932 40.9184 72.524C41.3264 72.116 41.5304 71.608 41.5304 71C41.5304 70.392 41.3264 69.884 40.9184 69.476C40.5104 69.068 40.0064 68.864 39.4064 68.864C38.8144 68.864 38.3144 69.068 37.9064 69.476C37.4984 69.884 37.2944 70.392 37.2944 71C37.2944 71.608 37.4984 72.116 37.9064 72.524C38.3144 72.932 38.8144 73.136 39.4064 73.136ZM45.3171 72.212L48.6411 68H49.4811V74H48.4491V69.788L45.1251 74H44.2851V68H45.3171V72.212ZM54.7903 70.928C55.4543 71.208 55.7863 71.684 55.7863 72.356C55.7863 72.876 55.5823 73.308 55.1743 73.652C54.7663 73.988 54.2023 74.156 53.4823 74.156C52.2823 74.156 51.4783 73.676 51.0703 72.716L51.9463 72.2C52.1703 72.856 52.6863 73.184 53.4943 73.184C53.8863 73.184 54.1943 73.1 54.4183 72.932C54.6423 72.764 54.7543 72.54 54.7543 72.26C54.7543 72.02 54.6623 71.824 54.4783 71.672C54.3023 71.52 54.0623 71.444 53.7583 71.444H52.8823V70.496H53.5303C53.8343 70.496 54.0703 70.424 54.2383 70.28C54.4063 70.128 54.4903 69.924 54.4903 69.668C54.4903 69.404 54.3903 69.196 54.1903 69.044C53.9903 68.884 53.7223 68.804 53.3863 68.804C52.7143 68.804 52.2583 69.088 52.0183 69.656L51.1663 69.164C51.5903 68.284 52.3303 67.844 53.3863 67.844C54.0263 67.844 54.5383 68.012 54.9223 68.348C55.3143 68.676 55.5103 69.088 55.5103 69.584C55.5103 70.192 55.2703 70.64 54.7903 70.928ZM61.3935 70.916C62.0095 71.172 62.3175 71.636 62.3175 72.308C62.3175 72.82 62.1495 73.232 61.8135 73.544C61.4775 73.848 61.0055 74 60.3975 74H57.3975V68H60.1575C60.7495 68 61.2095 68.148 61.5375 68.444C61.8735 68.74 62.0415 69.136 62.0415 69.632C62.0415 70.208 61.8255 70.636 61.3935 70.916ZM60.1095 68.936H58.4175V70.508H60.1095C60.7175 70.508 61.0215 70.24 61.0215 69.704C61.0215 69.192 60.7175 68.936 60.1095 68.936ZM58.4175 73.052H60.3375C60.6415 73.052 60.8735 72.98 61.0335 72.836C61.2015 72.692 61.2855 72.488 61.2855 72.224C61.2855 71.976 61.2015 71.784 61.0335 71.648C60.8735 71.504 60.6415 71.432 60.3375 71.432H58.4175V73.052ZM69.6843 71.48H64.6563C64.7603 72.008 65.0043 72.424 65.3883 72.728C65.7723 73.024 66.2523 73.172 66.8283 73.172C67.6203 73.172 68.1963 72.88 68.5563 72.296L69.4443 72.8C68.8523 73.704 67.9723 74.156 66.8043 74.156C65.8603 74.156 65.0843 73.86 64.4763 73.268C63.8843 72.66 63.5883 71.904 63.5883 71C63.5883 70.088 63.8803 69.336 64.4643 68.744C65.0483 68.144 65.8043 67.844 66.7323 67.844C67.6123 67.844 68.3283 68.156 68.8803 68.78C69.4403 69.388 69.7203 70.132 69.7203 71.012C69.7203 71.164 69.7083 71.32 69.6843 71.48ZM66.7323 68.828C66.1803 68.828 65.7163 68.984 65.3403 69.296C64.9723 69.608 64.7443 70.032 64.6563 70.568H68.6643C68.5763 70.016 68.3563 69.588 68.0043 69.284C67.6523 68.98 67.2283 68.828 66.7323 68.828ZM74.2087 74.156C73.3047 74.156 72.5527 73.856 71.9527 73.256C71.3527 72.648 71.0527 71.896 71.0527 71C71.0527 70.104 71.3527 69.356 71.9527 68.756C72.5527 68.148 73.3047 67.844 74.2087 67.844C74.8007 67.844 75.3327 67.988 75.8047 68.276C76.2767 68.556 76.6287 68.936 76.8607 69.416L75.9847 69.92C75.8327 69.6 75.5967 69.344 75.2767 69.152C74.9647 68.96 74.6087 68.864 74.2087 68.864C73.6087 68.864 73.1047 69.068 72.6967 69.476C72.2967 69.892 72.0967 70.4 72.0967 71C72.0967 71.592 72.2967 72.096 72.6967 72.512C73.1047 72.92 73.6087 73.124 74.2087 73.124C74.6087 73.124 74.9687 73.032 75.2887 72.848C75.6087 72.656 75.8527 72.4 76.0207 72.08L76.9087 72.596C76.6447 73.076 76.2727 73.456 75.7927 73.736C75.3127 74.016 74.7847 74.156 74.2087 74.156ZM77.6537 68H82.7897V69.008H80.7497V74H79.7057V69.008H77.6537V68ZM85.2167 72.212L88.5407 68H89.3807V74H88.3487V69.788L85.0247 74H84.1847V68H85.2167V72.212ZM37.8181 81.844C38.6581 81.844 39.3741 82.152 39.9661 82.768C40.5581 83.384 40.8541 84.128 40.8541 85C40.8541 85.88 40.5581 86.628 39.9661 87.244C39.3821 87.852 38.6661 88.156 37.8181 88.156C36.8261 88.156 36.0701 87.76 35.5501 86.968V90.4H34.5061V82H35.5501V83.032C36.0701 82.24 36.8261 81.844 37.8181 81.844ZM37.6861 87.148C38.2861 87.148 38.7901 86.944 39.1981 86.536C39.6061 86.112 39.8101 85.6 39.8101 85C39.8101 84.392 39.6061 83.884 39.1981 83.476C38.7901 83.06 38.2861 82.852 37.6861 82.852C37.0781 82.852 36.5701 83.06 36.1621 83.476C35.7541 83.884 35.5501 84.392 35.5501 85C35.5501 85.6 35.7541 86.112 36.1621 86.536C36.5701 86.944 37.0781 87.148 37.6861 87.148ZM47.5478 83.032V82H48.5918V88H47.5478V86.968C47.0358 87.76 46.2798 88.156 45.2798 88.156C44.4318 88.156 43.7158 87.852 43.1318 87.244C42.5398 86.628 42.2438 85.88 42.2438 85C42.2438 84.128 42.5398 83.384 43.1318 82.768C43.7238 82.152 44.4398 81.844 45.2798 81.844C46.2798 81.844 47.0358 82.24 47.5478 83.032ZM45.4118 87.148C46.0198 87.148 46.5278 86.944 46.9358 86.536C47.3438 86.112 47.5478 85.6 47.5478 85C47.5478 84.392 47.3438 83.884 46.9358 83.476C46.5278 83.06 46.0198 82.852 45.4118 82.852C44.8118 82.852 44.3078 83.06 43.8998 83.476C43.4918 83.884 43.2878 84.392 43.2878 85C43.2878 85.6 43.4918 86.112 43.8998 86.536C44.3078 86.944 44.8118 87.148 45.4118 87.148ZM53.4736 88.156C52.5696 88.156 51.8176 87.856 51.2176 87.256C50.6176 86.648 50.3176 85.896 50.3176 85C50.3176 84.104 50.6176 83.356 51.2176 82.756C51.8176 82.148 52.5696 81.844 53.4736 81.844C54.0656 81.844 54.5976 81.988 55.0696 82.276C55.5416 82.556 55.8936 82.936 56.1256 83.416L55.2496 83.92C55.0976 83.6 54.8616 83.344 54.5416 83.152C54.2296 82.96 53.8736 82.864 53.4736 82.864C52.8736 82.864 52.3696 83.068 51.9616 83.476C51.5616 83.892 51.3616 84.4 51.3616 85C51.3616 85.592 51.5616 86.096 51.9616 86.512C52.3696 86.92 52.8736 87.124 53.4736 87.124C53.8736 87.124 54.2336 87.032 54.5536 86.848C54.8736 86.656 55.1176 86.4 55.2856 86.08L56.1736 86.596C55.9096 87.076 55.5376 87.456 55.0576 87.736C54.5776 88.016 54.0496 88.156 53.4736 88.156ZM61.3472 84.868V82H62.3912V88H61.3472V85.84C60.8592 86.048 60.3192 86.152 59.7272 86.152C58.9512 86.152 58.3552 85.968 57.9392 85.6C57.5232 85.232 57.3152 84.696 57.3152 83.992V82H58.3592V83.932C58.3592 84.372 58.4752 84.692 58.7072 84.892C58.9472 85.084 59.3112 85.18 59.7992 85.18C60.3512 85.18 60.8672 85.076 61.3472 84.868ZM70.2173 85.48H65.1893C65.2933 86.008 65.5373 86.424 65.9213 86.728C66.3053 87.024 66.7853 87.172 67.3613 87.172C68.1533 87.172 68.7293 86.88 69.0893 86.296L69.9773 86.8C69.3853 87.704 68.5053 88.156 67.3373 88.156C66.3933 88.156 65.6173 87.86 65.0093 87.268C64.4173 86.66 64.1213 85.904 64.1213 85C64.1213 84.088 64.4133 83.336 64.9973 82.744C65.5813 82.144 66.3373 81.844 67.2653 81.844C68.1453 81.844 68.8613 82.156 69.4133 82.78C69.9733 83.388 70.2533 84.132 70.2533 85.012C70.2533 85.164 70.2413 85.32 70.2173 85.48ZM67.2653 82.828C66.7133 82.828 66.2493 82.984 65.8733 83.296C65.5053 83.608 65.2773 84.032 65.1893 84.568H69.1973C69.1093 84.016 68.8893 83.588 68.5373 83.284C68.1853 82.98 67.7613 82.828 67.2653 82.828ZM71.027 82H76.163V83.008H74.123V88H73.079V83.008H71.027V82Z" fill="white"/>
<path d="M43.9512 38.9854C44.9515 38.9854 45.7637 39.7975 45.7637 40.7979V43.624H48.5898C49.5902 43.624 50.4023 44.4362 50.4023 45.4365C50.4023 46.4368 49.5901 47.249 48.5898 47.249H45.7637V50.0752C45.7637 51.0756 44.9515 51.8877 43.9512 51.8877C42.9509 51.8876 42.1387 51.0755 42.1387 50.0752V47.249H39.3125C38.3122 47.249 37.5001 46.4368 37.5 45.4365C37.5 44.4362 38.3121 43.624 39.3125 43.624H42.1387V40.7979C42.1387 39.7976 42.9509 38.9855 43.9512 38.9854ZM62.4102 48.2354H71.6875C72.6879 48.2354 73.5 49.0475 73.5 50.0479C73.4998 51.048 72.6877 51.8604 71.6875 51.8604H62.4102C61.4099 51.8604 60.5979 51.048 60.5977 50.0479C60.5977 49.0475 61.4098 48.2354 62.4102 48.2354ZM62.4102 38.9854H71.6875C72.6879 38.9854 73.5 39.7975 73.5 40.7979C73.4998 41.798 72.6877 42.6104 71.6875 42.6104H62.4102C61.4099 42.6104 60.5979 41.798 60.5977 40.7979C60.5977 39.7975 61.4098 38.9854 62.4102 38.9854ZM70.4062 21.0303C71.1129 20.3237 72.2621 20.3237 72.9688 21.0303C73.6753 21.7369 73.6753 22.8862 72.9688 23.5928L69.6113 26.9502L72.9688 30.3076C73.6753 31.0142 73.6752 32.1635 72.9688 32.8701C72.2621 33.5767 71.1129 33.5767 70.4062 32.8701L67.0488 29.5127L63.6914 32.8701C62.9848 33.5767 61.8345 33.5767 61.1279 32.8701C60.4218 32.1635 60.4216 31.0141 61.1279 30.3076L64.1318 27.3037L64.4863 26.9502L64.1318 26.5967L61.1279 23.5928C60.4216 22.8863 60.4218 21.7369 61.1279 21.0303C61.8345 20.3237 62.9848 20.3237 63.6914 21.0303L67.0488 24.3877L70.4062 21.0303ZM39.3125 25.124H48.5898C49.5902 25.124 50.4023 25.9362 50.4023 26.9365C50.4022 27.9368 49.5901 28.749 48.5898 28.749H39.3125C38.3122 28.749 37.5001 27.9368 37.5 26.9365C37.5 25.9362 38.3121 25.124 39.3125 25.124Z" fill="white" stroke="#FFB000"/>
<defs>
<radialGradient id="paint0_radial_120_1168" cx="0" cy="0" r="1" gradientTransform="matrix(-1.23217e-05 143.5 -116.638 -0.000163855 55 8.83886e-06)" gradientUnits="userSpaceOnUse">
<stop stop-color="#FFC400"/>
<stop offset="1" stop-color="#FF9900"/>
</radialGradient>
</defs>
</svg>
