<svg width="110" height="105" viewBox="0 0 110 105" fill="none" xmlns="http://www.w3.org/2000/svg">
<path d="M0 8C0 3.58172 3.58172 0 8 0H110V105H8C3.58172 105 0 101.418 0 97V8Z" fill="url(#paint0_radial_120_1172)"/>
<path d="M34.625 74.156C33.345 74.156 32.293 73.736 31.469 72.896C30.645 72.064 30.233 71.032 30.233 69.8C30.233 68.568 30.645 67.536 31.469 66.704C32.293 65.864 33.345 65.444 34.625 65.444C35.385 65.444 36.089 65.628 36.737 65.996C37.385 66.364 37.889 66.86 38.249 67.484L37.277 68.048C37.037 67.584 36.677 67.216 36.197 66.944C35.725 66.664 35.201 66.524 34.625 66.524C33.649 66.524 32.857 66.836 32.249 67.46C31.641 68.076 31.337 68.856 31.337 69.8C31.337 70.736 31.641 71.512 32.249 72.128C32.857 72.752 33.649 73.064 34.625 73.064C35.201 73.064 35.725 72.928 36.197 72.656C36.677 72.376 37.037 72.008 37.277 71.552L38.249 72.104C37.897 72.728 37.397 73.228 36.749 73.604C36.109 73.972 35.401 74.156 34.625 74.156ZM42.0321 70.904L44.9961 74H43.7001L40.9641 71.156V74H39.9201V68H40.9641V70.652L43.5561 68H44.9001L42.0321 70.904ZM50.8642 69.032V68H51.9082V74H50.8642V72.968C50.3522 73.76 49.5962 74.156 48.5962 74.156C47.7482 74.156 47.0322 73.852 46.4482 73.244C45.8562 72.628 45.5602 71.88 45.5602 71C45.5602 70.128 45.8562 69.384 46.4482 68.768C47.0402 68.152 47.7562 67.844 48.5962 67.844C49.5962 67.844 50.3522 68.24 50.8642 69.032ZM48.7282 73.148C49.3362 73.148 49.8442 72.944 50.2522 72.536C50.6602 72.112 50.8642 71.6 50.8642 71C50.8642 70.392 50.6602 69.884 50.2522 69.476C49.8442 69.06 49.3362 68.852 48.7282 68.852C48.1282 68.852 47.6242 69.06 47.2162 69.476C46.8082 69.884 46.6042 70.392 46.6042 71C46.6042 71.6 46.8082 72.112 47.2162 72.536C47.6242 72.944 48.1282 73.148 48.7282 73.148ZM57.75 70.868V68H58.794V74H57.75V71.84C57.262 72.048 56.722 72.152 56.13 72.152C55.354 72.152 54.758 71.968 54.342 71.6C53.926 71.232 53.718 70.696 53.718 69.992V68H54.762V69.932C54.762 70.372 54.878 70.692 55.11 70.892C55.35 71.084 55.714 71.18 56.202 71.18C56.754 71.18 57.27 71.076 57.75 70.868ZM65.8281 69.032V68H66.8721V74H65.8281V72.968C65.3161 73.76 64.5601 74.156 63.5601 74.156C62.7121 74.156 61.9961 73.852 61.4121 73.244C60.8201 72.628 60.5241 71.88 60.5241 71C60.5241 70.128 60.8201 69.384 61.4121 68.768C62.0041 68.152 62.7201 67.844 63.5601 67.844C64.5601 67.844 65.3161 68.24 65.8281 69.032ZM63.6921 73.148C64.3001 73.148 64.8081 72.944 65.2161 72.536C65.6241 72.112 65.8281 71.6 65.8281 71C65.8281 70.392 65.6241 69.884 65.2161 69.476C64.8081 69.06 64.3001 68.852 63.6921 68.852C63.0921 68.852 62.5881 69.06 62.1801 69.476C61.7721 69.884 61.5681 70.392 61.5681 71C61.5681 71.6 61.7721 72.112 62.1801 72.536C62.5881 72.944 63.0921 73.148 63.6921 73.148ZM68.2619 68H73.3979V69.008H71.3579V74H70.3139V69.008H68.2619V68ZM75.8368 70.16H77.3248C77.9248 70.16 78.4208 70.34 78.8128 70.7C79.2128 71.052 79.4128 71.512 79.4128 72.08C79.4128 72.648 79.2128 73.112 78.8128 73.472C78.4128 73.824 77.9168 74 77.3248 74H74.7928V68H75.8368V70.16ZM75.8368 73.028H77.3248C77.6288 73.028 77.8808 72.94 78.0808 72.764C78.2808 72.588 78.3808 72.36 78.3808 72.08C78.3808 71.8 78.2768 71.572 78.0688 71.396C77.8688 71.212 77.6208 71.12 77.3248 71.12H75.8368V73.028ZM20.5207 82H25.7167V88H24.6727V82.996H21.5647V88H20.5207V82ZM31.0978 81.844C31.9378 81.844 32.6538 82.152 33.2458 82.768C33.8378 83.384 34.1338 84.128 34.1338 85C34.1338 85.88 33.8378 86.628 33.2458 87.244C32.6618 87.852 31.9458 88.156 31.0978 88.156C30.1058 88.156 29.3498 87.76 28.8298 86.968V90.4H27.7858V82H28.8298V83.032C29.3498 82.24 30.1058 81.844 31.0978 81.844ZM30.9658 87.148C31.5658 87.148 32.0698 86.944 32.4778 86.536C32.8858 86.112 33.0898 85.6 33.0898 85C33.0898 84.392 32.8858 83.884 32.4778 83.476C32.0698 83.06 31.5658 82.852 30.9658 82.852C30.3578 82.852 29.8498 83.06 29.4418 83.476C29.0338 83.884 28.8298 84.392 28.8298 85C28.8298 85.6 29.0338 86.112 29.4418 86.536C29.8498 86.944 30.3578 87.148 30.9658 87.148ZM40.8276 83.032V82H41.8716V88H40.8276V86.968C40.3156 87.76 39.5596 88.156 38.5596 88.156C37.7116 88.156 36.9956 87.852 36.4116 87.244C35.8196 86.628 35.5236 85.88 35.5236 85C35.5236 84.128 35.8196 83.384 36.4116 82.768C37.0036 82.152 37.7196 81.844 38.5596 81.844C39.5596 81.844 40.3156 82.24 40.8276 83.032ZM38.6916 87.148C39.2996 87.148 39.8076 86.944 40.2156 86.536C40.6236 86.112 40.8276 85.6 40.8276 85C40.8276 84.392 40.6236 83.884 40.2156 83.476C39.8076 83.06 39.2996 82.852 38.6916 82.852C38.0916 82.852 37.5876 83.06 37.1796 83.476C36.7716 83.884 36.5676 84.392 36.5676 85C36.5676 85.6 36.7716 86.112 37.1796 86.536C37.5876 86.944 38.0916 87.148 38.6916 87.148ZM48.1573 81.1H44.9173V80.188H48.1573V81.1ZM44.9653 86.212L48.2893 82H49.1293V88H48.0973V83.788L44.7733 88H43.9333V82H44.9653V86.212ZM54.0185 88.156C53.1145 88.156 52.3625 87.856 51.7625 87.256C51.1625 86.648 50.8625 85.896 50.8625 85C50.8625 84.104 51.1625 83.356 51.7625 82.756C52.3625 82.148 53.1145 81.844 54.0185 81.844C54.6105 81.844 55.1425 81.988 55.6145 82.276C56.0865 82.556 56.4385 82.936 56.6705 83.416L55.7945 83.92C55.6425 83.6 55.4065 83.344 55.0865 83.152C54.7745 82.96 54.4185 82.864 54.0185 82.864C53.4185 82.864 52.9145 83.068 52.5065 83.476C52.1065 83.892 51.9065 84.4 51.9065 85C51.9065 85.592 52.1065 86.096 52.5065 86.512C52.9145 86.92 53.4185 87.124 54.0185 87.124C54.4185 87.124 54.7785 87.032 55.0985 86.848C55.4185 86.656 55.6625 86.4 55.8305 86.08L56.7185 86.596C56.4545 87.076 56.0825 87.456 55.6025 87.736C55.1225 88.016 54.5945 88.156 54.0185 88.156ZM62.729 84.82H58.349V83.812H62.729V84.82ZM64.9683 82H69.4203V88H68.3763V83.008H66.0123V85.456C66.0123 86.416 65.8203 87.1 65.4363 87.508C65.0523 87.908 64.4883 88.072 63.7443 88V87.016C64.1603 87.072 64.4683 86.98 64.6683 86.74C64.8683 86.492 64.9683 86.056 64.9683 85.432V82ZM72.5142 86.212L75.8382 82H76.6782V88H75.6462V83.788L72.3222 88H71.4822V82H72.5142V86.212ZM81.5674 88.156C80.6634 88.156 79.9114 87.856 79.3114 87.256C78.7114 86.648 78.4114 85.896 78.4114 85C78.4114 84.104 78.7114 83.356 79.3114 82.756C79.9114 82.148 80.6634 81.844 81.5674 81.844C82.1594 81.844 82.6914 81.988 83.1634 82.276C83.6354 82.556 83.9874 82.936 84.2194 83.416L83.3434 83.92C83.1914 83.6 82.9554 83.344 82.6354 83.152C82.3234 82.96 81.9674 82.864 81.5674 82.864C80.9674 82.864 80.4634 83.068 80.0554 83.476C79.6554 83.892 79.4554 84.4 79.4554 85C79.4554 85.592 79.6554 86.096 80.0554 86.512C80.4634 86.92 80.9674 87.124 81.5674 87.124C81.9674 87.124 82.3274 87.032 82.6474 86.848C82.9674 86.656 83.2114 86.4 83.3794 86.08L84.2674 86.596C84.0034 87.076 83.6314 87.456 83.1514 87.736C82.6714 88.016 82.1434 88.156 81.5674 88.156ZM85.0124 82H90.1484V83.008H88.1084V88H87.0644V83.008H85.0124V82Z" fill="white"/>
<path d="M77.5948 25.8307C70.8582 24.0651 63.6026 20.3741 56.6125 15.1572C56.5055 15.0773 56.3792 15.0258 56.246 15.0075C56.1127 14.9891 55.9769 15.0047 55.8515 15.0526C48.7024 17.7855 41.4936 18.7327 35.0067 17.79C34.8559 17.7704 34.7026 17.7939 34.5651 17.8575C34.4276 17.9211 34.3118 18.0223 34.2316 18.1488C34.1514 18.2753 34.1102 18.4218 34.113 18.5707C34.1158 18.7195 34.1624 18.8645 34.2473 18.988C35.7377 21.0876 37.2804 23.1075 38.8754 25.0477C37.0648 25.071 35.2551 24.9541 33.4633 24.698C33.3124 24.678 33.1589 24.7011 33.0211 24.7645C32.8833 24.828 32.7673 24.9291 32.6869 25.0557C32.6065 25.1823 32.5652 25.3289 32.568 25.4779C32.5708 25.627 32.6176 25.772 32.7027 25.8956C33.9272 27.6199 35.197 29.2765 36.4902 30.8962C34.9512 30.8818 33.415 30.7658 31.8919 30.5491C31.7413 30.5299 31.5881 30.5536 31.4509 30.6174C31.3137 30.6812 31.1982 30.7825 31.1182 30.9089C31.0383 31.0354 30.9973 31.1818 31.0001 31.3305C31.003 31.4792 31.0497 31.624 31.1344 31.7474C37.0489 40.2101 44.2742 47.7188 52.5502 54.0034C52.6572 54.0834 52.7835 54.1351 52.9169 54.1534C53.0503 54.1717 53.1862 54.1561 53.3116 54.108C61.4229 50.8905 68.751 46.0366 74.819 39.8623C74.913 39.7659 74.9799 39.6473 75.0133 39.5181C75.0467 39.3888 75.0454 39.2533 75.0096 39.1247C74.9737 38.9961 74.9046 38.8788 74.8088 38.7841C74.7129 38.6893 74.5938 38.6205 74.4628 38.5841C73.6833 38.3783 72.9232 38.1488 72.1755 37.9094C73.6318 36.6807 75.0437 35.3837 76.4114 34.0184C76.5071 33.9225 76.5754 33.8037 76.6097 33.6739C76.644 33.5441 76.6429 33.4078 76.6067 33.2785C76.5704 33.1492 76.5002 33.0315 76.4031 32.937C76.306 32.8425 76.1852 32.7745 76.053 32.7399C75.0062 32.4661 73.9209 32.1195 72.8245 31.7406C74.614 30.2841 76.3256 28.7383 77.9525 27.1093C78.0467 27.0128 78.1137 26.8941 78.1472 26.7647C78.1806 26.6353 78.1792 26.4997 78.1432 26.3709C78.1072 26.2422 78.0377 26.1248 77.9416 26.0302C77.8455 25.9355 77.7261 25.8668 77.5948 25.8307ZM72.7624 39.7067C67.1459 45.1944 60.4822 49.5476 53.1504 52.5186C45.6111 46.7438 38.9708 39.9251 33.4384 32.2772C34.857 32.4036 36.2819 32.4495 37.7059 32.4146C42.5224 38.282 48.0348 43.5676 54.1269 48.1598C54.2339 48.2398 54.3601 48.2914 54.4934 48.3098C54.6267 48.3282 54.7625 48.3127 54.8879 48.2648C60.6366 46.0201 65.9946 42.9155 70.7707 39.0619C71.4222 39.2861 72.0813 39.5064 72.7624 39.7067ZM74.3552 33.8632C68.7366 39.3557 62.0667 43.7095 54.7275 46.6754C47.185 40.9007 40.5424 34.0805 35.0094 26.4299C36.7164 26.5845 38.4322 26.6253 40.1448 26.5519C44.7399 32.0065 49.9482 36.9367 55.6711 41.2493C55.7781 41.3291 55.9043 41.3806 56.0375 41.3989C56.1707 41.4172 56.3064 41.4017 56.4317 41.3539C61.8136 39.2559 66.8533 36.3988 71.3907 32.8731C72.3912 33.2404 73.3841 33.5764 74.3552 33.8632ZM56.2709 39.7644C48.7315 33.9869 42.0894 27.1678 36.5524 19.5208C43.1785 20.0291 49.8354 19.0429 56.0112 16.6382C62.6115 21.5114 69.45 25.0565 75.8955 26.9541C70.2764 32.444 63.608 36.797 56.2709 39.7644Z" fill="white"/>
<path d="M59.9812 26.9897C59.9929 26.8549 59.968 26.7194 59.909 26.597C59.8501 26.4746 59.7591 26.3696 59.6453 26.2927C57.1206 24.5789 54.6936 22.7311 52.3753 20.7574C52.2762 20.6736 52.1573 20.6154 52.0295 20.5879C51.9017 20.5604 51.7688 20.5645 51.643 20.5999C48.391 21.5375 45.0365 22.0929 41.6503 22.2541C41.5043 22.2624 41.3636 22.3103 41.2437 22.3922C41.1238 22.4742 41.0296 22.5872 40.9714 22.7185C40.9133 22.8499 40.8935 22.9945 40.9143 23.1362C40.9351 23.2779 40.9957 23.4111 41.0893 23.5211C43.3572 26.114 45.7602 28.5908 48.2885 30.9416C48.3814 31.0278 48.4944 31.0904 48.6177 31.1241C48.741 31.1578 48.8708 31.1614 48.9959 31.1347C52.6275 30.343 56.1598 29.1648 59.5297 27.6211C59.6551 27.5641 59.7629 27.4757 59.8422 27.3648C59.9214 27.2539 59.9694 27.1245 59.9812 26.9897ZM49.0655 29.5457C47.0993 27.7051 45.1721 25.7408 43.3181 23.6883C46.1439 23.4483 48.94 22.9465 51.669 22.1897C53.6157 23.827 55.6118 25.3651 57.6217 26.776C54.8625 27.9543 51.9984 28.8815 49.0655 29.5457H49.0655Z" fill="white"/>
<path d="M50.8255 23.4352C50.5246 23.974 50.2255 24.4941 49.925 25.0265C48.7008 24.8087 47.4839 24.5474 46.2842 24.2237C46.1848 24.1966 46.0809 24.189 45.9785 24.2013C45.8761 24.2135 45.7772 24.2455 45.6874 24.2952C45.5976 24.345 45.5188 24.4116 45.4553 24.4912C45.3919 24.5709 45.3451 24.662 45.3177 24.7593C45.2903 24.8567 45.2828 24.9584 45.2956 25.0586C45.3084 25.1589 45.3413 25.2556 45.3924 25.3434C45.4434 25.4311 45.5117 25.5082 45.5932 25.57C45.6748 25.6319 45.768 25.6775 45.8675 25.704C46.9422 25.9941 48.0316 26.23 49.126 26.4382C48.9138 26.811 48.7003 27.1949 48.4886 27.5645C48.4231 27.6815 48.3896 27.8131 48.3915 27.9465C48.3934 28.0799 48.4306 28.2106 48.4994 28.3257C48.5682 28.4409 48.6663 28.5367 48.7842 28.6037C48.902 28.6707 49.0356 28.7066 49.1719 28.7081C50.0848 28.6218 50.2628 27.3445 50.7594 26.7209C52.0535 26.9156 53.3534 27.0699 54.6561 27.1449C54.8599 27.1451 55.0558 27.0675 55.2022 26.9287C55.3486 26.7899 55.4341 26.6007 55.4405 26.4013C55.4469 26.2018 55.3738 26.0078 55.2366 25.8602C55.0994 25.7126 54.9089 25.6231 54.7055 25.6107C53.6592 25.5451 52.6147 25.4269 51.5731 25.2833C51.8815 24.6357 52.8159 23.6827 51.8902 23.13C51.7077 23.0324 51.493 23.0097 51.2934 23.067C51.0938 23.1242 50.9255 23.2566 50.8255 23.4352ZM55.1448 22.0641C55.2195 22.2541 55.3682 22.4073 55.5582 22.4901C55.7482 22.5729 55.9639 22.5785 56.1582 22.5057C56.9781 22.1975 57.8138 21.8593 58.6418 21.5009C58.7363 21.4603 58.8216 21.4018 58.893 21.3288C58.9643 21.2558 59.0203 21.1697 59.0576 21.0755C59.0949 20.9814 59.1129 20.8809 59.1105 20.7799C59.1081 20.6789 59.0853 20.5793 59.0436 20.4869C59.0018 20.3946 58.9418 20.3111 58.8671 20.2415C58.7923 20.1718 58.7043 20.1173 58.608 20.081C58.5117 20.0447 58.409 20.0274 58.3058 20.03C58.2027 20.0327 58.1011 20.0552 58.0068 20.0963C57.2029 20.4447 56.3918 20.7727 55.5959 21.0719C55.4017 21.1449 55.2451 21.2905 55.1605 21.4765C55.0759 21.6626 55.0703 21.8739 55.1448 22.0641ZM57.7843 23.9969C58.4388 25.1096 59.8175 23.781 60.6773 23.5306C60.8635 23.4404 61.0054 23.2816 61.0721 23.089C61.1388 22.8964 61.1248 22.6858 61.0331 22.5034C60.9415 22.3209 60.7797 22.1815 60.5832 22.1157C60.3867 22.0498 60.1715 22.0629 59.9849 22.1522C59.2672 22.6652 57.3587 22.8177 57.7843 23.9969ZM60.4173 25.767C60.9881 26.7118 62.01 25.76 62.7048 25.4648C62.7954 25.4168 62.8754 25.3518 62.9402 25.2735C63.0051 25.1951 63.0536 25.1051 63.0829 25.0084C63.1122 24.9118 63.1218 24.8104 63.111 24.7101C63.1003 24.6098 63.0695 24.5126 63.0204 24.424C62.4457 23.501 61.4472 24.4609 60.7581 24.7337C60.6664 24.7796 60.5849 24.8428 60.5181 24.9196C60.4514 24.9963 60.4007 25.0853 60.3691 25.1812C60.3374 25.2772 60.3254 25.3783 60.3337 25.4788C60.3419 25.5793 60.3703 25.6773 60.4173 25.767ZM62.4191 28.8948C62.3221 28.7147 62.1559 28.5796 61.9572 28.5194C61.7585 28.4591 61.5435 28.4786 61.3594 28.5735C58.4742 30.0702 55.452 31.2989 52.3326 32.2434C52.2338 32.2728 52.142 32.3209 52.0623 32.385C51.9826 32.4492 51.9166 32.5281 51.8681 32.6172C51.8196 32.7064 51.7895 32.804 51.7796 32.9046C51.7697 33.0051 51.7802 33.1066 51.8104 33.2032C51.8407 33.2997 51.8901 33.3895 51.9558 33.4674C52.0215 33.5452 52.1023 33.6096 52.1935 33.6569C52.2847 33.7041 52.3845 33.7333 52.4872 33.7427C52.59 33.7521 52.6936 33.7416 52.7921 33.7117C56.0055 32.7389 59.1186 31.4736 62.0909 29.9323C62.2749 29.8373 62.4129 29.6746 62.4744 29.4801C62.536 29.2855 62.5161 29.075 62.4191 28.8948ZM62.6432 31.4437C60.3245 32.7195 57.9131 33.8267 55.4286 34.7564C55.2382 34.8316 55.0855 34.9769 55.0034 35.1611C54.9212 35.3453 54.916 35.5537 54.989 35.7415C55.062 35.9294 55.2073 36.0817 55.3938 36.1659C55.5802 36.25 55.7929 36.2593 55.9862 36.1916C58.5427 35.2352 61.0239 34.0962 63.4099 32.7837C63.591 32.684 63.7243 32.518 63.7805 32.3221C63.8368 32.1262 63.8113 31.9165 63.7097 31.739C63.6082 31.5615 63.4388 31.4307 63.2388 31.3754C63.0389 31.32 62.8246 31.3446 62.6432 31.4437V31.4437Z" fill="white"/>
<defs>
<radialGradient id="paint0_radial_120_1172" cx="0" cy="0" r="1" gradientTransform="matrix(-1.23217e-05 143.5 -116.638 -0.000163855 55 8.83886e-06)" gradientUnits="userSpaceOnUse">
<stop stop-color="#FFC400"/>
<stop offset="1" stop-color="#FF9900"/>
</radialGradient>
</defs>
</svg>
