<svg width="110" height="105" viewBox="0 0 110 105" fill="none" xmlns="http://www.w3.org/2000/svg">
<path d="M0 8C0 3.58172 3.58172 0 8 0H110V105H8C3.58172 105 0 101.418 0 97V8Z" fill="url(#paint0_radial_120_1179)"/>
<path d="M16.6504 65.6H22.7464V74H21.6304V66.656H17.7664V74H16.6504V65.6ZM30.6808 71.48H25.6528C25.7568 72.008 26.0008 72.424 26.3848 72.728C26.7688 73.024 27.2488 73.172 27.8248 73.172C28.6168 73.172 29.1928 72.88 29.5528 72.296L30.4408 72.8C29.8488 73.704 28.9688 74.156 27.8008 74.156C26.8568 74.156 26.0808 73.86 25.4728 73.268C24.8808 72.66 24.5848 71.904 24.5848 71C24.5848 70.088 24.8768 69.336 25.4608 68.744C26.0448 68.144 26.8008 67.844 27.7288 67.844C28.6088 67.844 29.3248 68.156 29.8768 68.78C30.4368 69.388 30.7168 70.132 30.7168 71.012C30.7168 71.164 30.7048 71.32 30.6808 71.48ZM27.7288 68.828C27.1768 68.828 26.7128 68.984 26.3368 69.296C25.9688 69.608 25.7408 70.032 25.6528 70.568H29.6608C29.5728 70.016 29.3528 69.588 29.0008 69.284C28.6488 68.98 28.2248 68.828 27.7288 68.828ZM35.7089 67.844C36.5489 67.844 37.2649 68.152 37.8569 68.768C38.4489 69.384 38.7449 70.128 38.7449 71C38.7449 71.88 38.4489 72.628 37.8569 73.244C37.2729 73.852 36.5569 74.156 35.7089 74.156C34.7169 74.156 33.9609 73.76 33.4409 72.968V76.4H32.3969V68H33.4409V69.032C33.9609 68.24 34.7169 67.844 35.7089 67.844ZM35.5769 73.148C36.1769 73.148 36.6809 72.944 37.0889 72.536C37.4969 72.112 37.7009 71.6 37.7009 71C37.7009 70.392 37.4969 69.884 37.0889 69.476C36.6809 69.06 36.1769 68.852 35.5769 68.852C34.9689 68.852 34.4609 69.06 34.0529 69.476C33.6449 69.884 33.4409 70.392 33.4409 71C33.4409 71.6 33.6449 72.112 34.0529 72.536C34.4609 72.944 34.9689 73.148 35.5769 73.148ZM46.2307 71.48H41.2027C41.3067 72.008 41.5507 72.424 41.9347 72.728C42.3187 73.024 42.7987 73.172 43.3747 73.172C44.1667 73.172 44.7427 72.88 45.1027 72.296L45.9907 72.8C45.3987 73.704 44.5187 74.156 43.3507 74.156C42.4067 74.156 41.6307 73.86 41.0227 73.268C40.4307 72.66 40.1347 71.904 40.1347 71C40.1347 70.088 40.4267 69.336 41.0107 68.744C41.5947 68.144 42.3507 67.844 43.2787 67.844C44.1587 67.844 44.8747 68.156 45.4267 68.78C45.9867 69.388 46.2667 70.132 46.2667 71.012C46.2667 71.164 46.2547 71.32 46.2307 71.48ZM43.2787 68.828C42.7267 68.828 42.2627 68.984 41.8867 69.296C41.5187 69.608 41.2907 70.032 41.2027 70.568H45.2107C45.1227 70.016 44.9027 69.588 44.5507 69.284C44.1987 68.98 43.7747 68.828 43.2787 68.828ZM51.0579 70.928C51.7219 71.208 52.0539 71.684 52.0539 72.356C52.0539 72.876 51.8499 73.308 51.4419 73.652C51.0339 73.988 50.4699 74.156 49.7499 74.156C48.5499 74.156 47.7459 73.676 47.3379 72.716L48.2139 72.2C48.4379 72.856 48.9539 73.184 49.7619 73.184C50.1539 73.184 50.4619 73.1 50.6859 72.932C50.9099 72.764 51.0219 72.54 51.0219 72.26C51.0219 72.02 50.9299 71.824 50.7459 71.672C50.5699 71.52 50.3299 71.444 50.0259 71.444H49.1499V70.496H49.7979C50.1019 70.496 50.3379 70.424 50.5059 70.28C50.6739 70.128 50.7579 69.924 50.7579 69.668C50.7579 69.404 50.6579 69.196 50.4579 69.044C50.2579 68.884 49.9899 68.804 49.6539 68.804C48.9819 68.804 48.5259 69.088 48.2859 69.656L47.4339 69.164C47.8579 68.284 48.5979 67.844 49.6539 67.844C50.2939 67.844 50.8059 68.012 51.1899 68.348C51.5819 68.676 51.7779 69.088 51.7779 69.584C51.7779 70.192 51.5379 70.64 51.0579 70.928ZM57.661 70.916C58.277 71.172 58.585 71.636 58.585 72.308C58.585 72.82 58.417 73.232 58.081 73.544C57.745 73.848 57.273 74 56.665 74H53.665V68H56.425C57.017 68 57.477 68.148 57.805 68.444C58.141 68.74 58.309 69.136 58.309 69.632C58.309 70.208 58.093 70.636 57.661 70.916ZM56.377 68.936H54.685V70.508H56.377C56.985 70.508 57.289 70.24 57.289 69.704C57.289 69.192 56.985 68.936 56.377 68.936ZM54.685 73.052H56.605C56.909 73.052 57.141 72.98 57.301 72.836C57.469 72.692 57.553 72.488 57.553 72.224C57.553 71.976 57.469 71.784 57.301 71.648C57.141 71.504 56.909 71.432 56.605 71.432H54.685V73.052ZM65.2559 73.244C64.6479 73.852 63.8999 74.156 63.0119 74.156C62.1239 74.156 61.3759 73.852 60.7679 73.244C60.1599 72.636 59.8559 71.888 59.8559 71C59.8559 70.112 60.1599 69.364 60.7679 68.756C61.3759 68.148 62.1239 67.844 63.0119 67.844C63.8999 67.844 64.6479 68.148 65.2559 68.756C65.8719 69.372 66.1799 70.12 66.1799 71C66.1799 71.88 65.8719 72.628 65.2559 73.244ZM63.0119 73.136C63.6119 73.136 64.1159 72.932 64.5239 72.524C64.9319 72.116 65.1359 71.608 65.1359 71C65.1359 70.392 64.9319 69.884 64.5239 69.476C64.1159 69.068 63.6119 68.864 63.0119 68.864C62.4199 68.864 61.9199 69.068 61.5119 69.476C61.1039 69.884 60.8999 70.392 60.8999 71C60.8999 71.608 61.1039 72.116 61.5119 72.524C61.9199 72.932 62.4199 73.136 63.0119 73.136ZM72.0427 70.496V68H73.0867V74H72.0427V71.492H68.9347V74H67.8907V68H68.9347V70.496H72.0427ZM76.1878 72.212L79.5118 68H80.3518V74H79.3198V69.788L75.9958 74H75.1558V68H76.1878V72.212ZM81.749 68H86.885V69.008H84.845V74H83.801V69.008H81.749V68ZM93.8055 71.48H88.7775C88.8815 72.008 89.1255 72.424 89.5095 72.728C89.8935 73.024 90.3735 73.172 90.9495 73.172C91.7415 73.172 92.3175 72.88 92.6775 72.296L93.5655 72.8C92.9735 73.704 92.0935 74.156 90.9255 74.156C89.9815 74.156 89.2055 73.86 88.5975 73.268C88.0055 72.66 87.7095 71.904 87.7095 71C87.7095 70.088 88.0015 69.336 88.5855 68.744C89.1695 68.144 89.9255 67.844 90.8535 67.844C91.7335 67.844 92.4495 68.156 93.0015 68.78C93.5615 69.388 93.8415 70.132 93.8415 71.012C93.8415 71.164 93.8295 71.32 93.8055 71.48ZM90.8535 68.828C90.3015 68.828 89.8375 68.984 89.4615 69.296C89.0935 69.608 88.8655 70.032 88.7775 70.568H92.7855C92.6975 70.016 92.4775 69.588 92.1255 69.284C91.7735 68.98 91.3495 68.828 90.8535 68.828ZM49.5085 82H50.6245V88H49.6045V83.644L47.6965 86.716H47.5645L45.6565 83.644V88H44.6245V82H45.7405L47.6245 85.036L49.5085 82ZM56.8503 84.496V82H57.8943V88H56.8503V85.492H53.7423V88H52.6982V82H53.7423V84.496H56.8503ZM65.7234 85.48H60.6954C60.7994 86.008 61.0434 86.424 61.4274 86.728C61.8114 87.024 62.2914 87.172 62.8674 87.172C63.6594 87.172 64.2354 86.88 64.5954 86.296L65.4834 86.8C64.8914 87.704 64.0114 88.156 62.8434 88.156C61.8994 88.156 61.1234 87.86 60.5154 87.268C59.9234 86.66 59.6274 85.904 59.6274 85C59.6274 84.088 59.9194 83.336 60.5034 82.744C61.0874 82.144 61.8434 81.844 62.7714 81.844C63.6514 81.844 64.3674 82.156 64.9194 82.78C65.4794 83.388 65.7594 84.132 65.7594 85.012C65.7594 85.164 65.7474 85.32 65.7234 85.48ZM62.7714 82.828C62.2194 82.828 61.7554 82.984 61.3794 83.296C61.0114 83.608 60.7834 84.032 60.6954 84.568H64.7034C64.6154 84.016 64.3954 83.588 64.0434 83.284C63.6914 82.98 63.2674 82.828 62.7714 82.828Z" fill="white"/>
<path d="M64.708 39.0116C64.365 38.6747 63.9575 38.4073 63.5087 38.2249C63.06 38.0425 62.5789 37.9486 62.093 37.9486C61.6071 37.9486 61.1259 38.0425 60.6772 38.2249C60.2284 38.4073 59.8209 38.6747 59.4779 39.0116L57.6935 40.7586C55.6844 39.5103 53.823 38.0475 52.1434 36.3972C50.4614 34.7498 48.9676 32.9278 47.6886 30.9636L49.473 29.2166C49.8172 28.8809 50.0903 28.4819 50.2766 28.0425C50.4629 27.6032 50.5589 27.1322 50.5589 26.6565C50.5589 26.1807 50.4629 25.7097 50.2766 25.2704C50.0903 24.831 49.8172 24.432 49.473 24.0963L45.9904 20.6987C45.6522 20.3607 45.2481 20.0926 44.802 19.9104C44.356 19.7283 43.8771 19.6358 43.3938 19.6385C42.907 19.6373 42.4249 19.7304 41.975 19.9124C41.5252 20.0943 41.1165 20.3616 40.7726 20.6987L39.0989 22.3252C38.3012 23.1649 37.7058 24.169 37.3566 25.2636C37.0073 26.3581 36.9131 27.5154 37.0807 28.6504C37.4745 33.1684 40.5018 38.602 45.1659 43.1802C49.8299 47.7585 55.4415 50.7102 60.0563 51.144C60.4006 51.162 60.7457 51.162 61.09 51.144C62.0834 51.1848 63.0751 51.0311 64.007 50.6918C64.9389 50.3525 65.7923 49.8345 66.517 49.1681L68.1783 47.5296C68.5227 47.1928 68.7957 46.7927 68.9816 46.3523C69.1674 45.9119 69.2625 45.4399 69.2613 44.9633C69.264 44.4902 69.1696 44.0213 68.9835 43.5846C68.7975 43.1479 68.5237 42.7523 68.1783 42.4212L64.708 39.0116ZM66.4432 45.8308L64.7695 47.4573C64.1507 47.9622 63.4283 48.3311 62.6513 48.5389C61.8742 48.7468 61.0606 48.7888 60.2655 48.6621C56.266 48.3247 51.1713 45.5537 46.9626 41.4333C42.7539 37.3129 39.9234 32.3612 39.5419 28.4456C39.4092 27.6672 39.4505 26.8699 39.663 26.1086C39.8754 25.3473 40.254 24.6402 40.7726 24.036L42.5077 22.3975C42.6227 22.2858 42.7591 22.1975 42.909 22.1375C43.059 22.0776 43.2195 22.0472 43.3815 22.0481C43.5434 22.0472 43.704 22.0776 43.8539 22.1375C44.0038 22.1975 44.1402 22.2858 44.2552 22.3975L47.7378 25.8432C47.967 26.0689 48.0957 26.3743 48.0957 26.6926C48.0957 27.0109 47.967 27.3162 47.7378 27.542L45.2766 29.9516C45.084 30.1392 44.9603 30.3839 44.9246 30.6477C44.889 30.9114 44.9435 31.1792 45.0797 31.4094C46.5532 33.8653 48.3442 36.1249 50.4083 38.1321C52.4586 40.1529 54.7666 41.9063 57.2751 43.3489C57.5102 43.4822 57.7838 43.5356 58.0531 43.5007C58.3225 43.4659 58.5725 43.3447 58.7641 43.1562L61.2254 40.7466C61.4559 40.5222 61.7678 40.3962 62.093 40.3962C62.4181 40.3962 62.73 40.5222 62.9605 40.7466L66.4432 44.1561C66.5572 44.2687 66.6475 44.4022 66.7087 44.549C66.77 44.6958 66.801 44.853 66.8001 45.0115C66.7924 45.3192 66.6647 45.6124 66.4432 45.8308ZM68.5844 20.2891C66.8742 18.6084 64.8411 17.2757 62.6022 16.3679C60.3634 15.4602 57.9632 14.9953 55.5399 15C55.2136 15 54.9005 15.127 54.6698 15.3529C54.439 15.5789 54.3093 15.8853 54.3093 16.2048C54.3093 16.5244 54.439 16.8308 54.6698 17.0568C54.9005 17.2827 55.2136 17.4096 55.5399 17.4096C57.6523 17.4096 59.7437 17.819 61.6935 18.6144C63.6434 19.4098 65.413 20.5753 66.9004 22.0438C68.3877 23.5122 69.5633 25.2545 70.3592 27.1701C71.1552 29.0857 71.5558 31.1366 71.5379 33.2045C71.5379 33.5241 71.6676 33.8305 71.8984 34.0564C72.1291 34.2824 72.4422 34.4093 72.7685 34.4093C73.0949 34.4093 73.4079 34.2824 73.6387 34.0564C73.8695 33.8305 73.9991 33.5241 73.9991 33.2045C74.0227 30.8069 73.5558 28.4289 72.6258 26.2108C71.6959 23.9926 70.3217 21.9791 68.5844 20.2891Z" fill="white"/>
<path d="M61.5826 27.1806C62.281 27.8602 62.8335 28.6697 63.2076 29.5615C63.5816 30.4533 63.7697 31.4093 63.7608 32.3733C63.7608 32.6928 63.8904 32.9992 64.1212 33.2252C64.352 33.4511 64.665 33.5781 64.9914 33.5781C65.3178 33.5781 65.6308 33.4511 65.8616 33.2252C66.0924 32.9992 66.222 32.6928 66.222 32.3733C66.2383 31.0974 65.9957 29.8311 65.5082 28.6478C65.0208 27.4645 64.2982 26.3877 63.3824 25.4799C62.4666 24.5721 61.3758 23.8513 60.1732 23.3594C58.9707 22.8676 57.6804 22.6143 56.3771 22.6144C56.0507 22.6144 55.7377 22.7413 55.5069 22.9673C55.2761 23.1932 55.1465 23.4997 55.1465 23.8192C55.1465 24.1387 55.2761 24.4452 55.5069 24.6711C55.7377 24.8971 56.0507 25.024 56.3771 25.024C57.3469 25.0312 58.3058 25.2253 59.199 25.5953C60.0922 25.9654 60.9021 26.504 61.5826 27.1806Z" fill="white"/>
<defs>
<radialGradient id="paint0_radial_120_1179" cx="0" cy="0" r="1" gradientTransform="matrix(-1.23217e-05 143.5 -116.638 -0.000163855 55 8.83886e-06)" gradientUnits="userSpaceOnUse">
<stop stop-color="#FFC400"/>
<stop offset="1" stop-color="#FF9900"/>
</radialGradient>
</defs>
</svg>
